<?xml version="1.0" encoding="UTF-8"?>
<svg id="Layer_2" data-name="Layer 2" xmlns="http://www.w3.org/2000/svg" viewBox="0 0 184.75 62.73">
  <defs>
    <style>
      .cls-1 {
        fill: #231f20;
      }
    </style>
  </defs>
  <g id="Layer_1-2" data-name="Layer 1">
    <g>
      <path class="cls-1" d="M20.28,59.63c0,.82-.29,1.52-.85,2.08-.56,.56-1.26,.84-2.07,.84H2.87c-.81,0-1.51-.3-2.05-.85-.54-.55-.82-1.27-.82-2.07V27.74c0-.82,.28-1.51,.84-2.07,.56-.56,1.24-.84,2.03-.84s1.53,.29,2.08,.84c.55,.56,.85,1.27,.85,2.07v28.97h11.57c.81,0,1.52,.3,2.07,.85,.55,.55,.84,1.27,.84,2.07Z"/>
      <path class="cls-1" d="M27.47,38.71v20.96c0,.8-.28,1.51-.8,2.04-.53,.55-1.23,.83-2.08,.83-.81,0-1.52-.29-2.05-.83-.55-.54-.82-1.23-.82-2.04v-20.96c0-.84,.29-1.56,.83-2.08,.54-.52,1.24-.79,2.04-.79s1.55,.28,2.07,.8c.52,.52,.8,1.24,.8,2.07Z"/>
      <path class="cls-1" d="M28.18,29.01c0,.97-.36,1.82-1.06,2.52-.7,.69-1.57,1.06-2.52,1.06s-1.83-.37-2.52-1.06c-.7-.7-1.06-1.55-1.06-2.52s.37-1.83,1.06-2.52,1.56-1.06,2.52-1.06,1.83,.37,2.52,1.06,1.06,1.56,1.06,2.52Z"/>
      <path class="cls-1" d="M39.19,35.76l-.03,1.03h4.36c.77,0,1.43,.24,1.92,.69,.51,.47,.77,1.09,.77,1.85,0,.7-.26,1.29-.76,1.76-.5,.46-1.16,.69-1.92,.69h-4.34v17.9c0,.85-.27,1.55-.8,2.07-.54,.54-1.24,.8-2.17,.8-.71,0-1.36-.27-1.92-.79s-.85-1.23-.85-2.08v-17.9h-1.56c-.77,0-1.43-.24-1.92-.69-.51-.47-.77-1.07-.77-1.76,0-.76,.26-1.38,.77-1.85,.49-.45,1.15-.69,1.92-.69h1.53l.04-.97c.08-2.07,.54-3.91,1.39-5.47,.93-1.73,2.25-3.1,3.93-4.07,1.66-.97,3.61-1.45,5.79-1.45,.8,0,1.5,.25,2.03,.73,.56,.5,.84,1.14,.84,1.91s-.28,1.36-.84,1.87c-.53,.5-1.24,.77-2.03,.77-1.09,0-2.01,.24-2.82,.73-.81,.49-1.42,1.16-1.87,2.02-.42,.81-.65,1.79-.68,2.91Z"/>
      <path class="cls-1" d="M69.62,50.61c.5-.48,.76-1.09,.76-1.82,0-2.53-.49-4.82-1.44-6.78-.49-.99-1.09-1.89-1.78-2.65-.7-.78-1.52-1.46-2.42-2.02-1.83-1.12-4.04-1.69-6.56-1.69s-4.85,.59-6.83,1.74c-1.98,1.15-3.55,2.76-4.67,4.79-1.12,2.03-1.69,4.4-1.69,7.04s.6,4.97,1.78,7c1.19,2.03,2.84,3.64,4.94,4.79,2.08,1.15,4.5,1.73,7.17,1.73,1.49,0,3.07-.28,4.7-.82,1.62-.55,3-1.26,4.1-2.13,.47-.36,1-.97,.95-1.88-.04-.69-.39-1.33-1.03-1.9-.46-.39-1.03-.59-1.68-.59h-.07c-.65,.02-1.24,.23-1.8,.64-.58,.43-1.37,.83-2.34,1.17-.96,.35-1.91,.52-2.83,.52-1.7,0-3.22-.38-4.53-1.12-1.32-.75-2.32-1.74-3.07-3.03-.18-.3-.32-.59-.44-.88l-.57-1.38h17.46c.75,0,1.38-.25,1.88-.73Zm-19.3-3.99l.6-1.4c.07-.15,.13-.3,.2-.45,.63-1.3,1.52-2.29,2.72-3.03,1.19-.74,2.65-1.11,4.35-1.11,1.49,0,2.72,.33,3.75,1.01,1.03,.68,1.8,1.58,2.37,2.74,.14,.3,.26,.61,.37,.91l.45,1.32h-14.8Z"/>
      <path class="cls-1" d="M94.61,29.01c0,.97-.36,1.82-1.06,2.52-.7,.69-1.57,1.06-2.52,1.06s-1.83-.37-2.52-1.06c-.7-.7-1.06-1.55-1.06-2.52s.37-1.83,1.06-2.52c.69-.69,1.56-1.06,2.52-1.06s1.83,.37,2.52,1.06,1.06,1.56,1.06,2.52Z"/>
      <path class="cls-1" d="M121,48.14v11.58c0,.82-.28,1.51-.82,2.05-.54,.55-1.23,.82-2.05,.82s-1.52-.29-2.05-.82c-.54-.54-.82-1.25-.82-2.05v-11.58c0-1.7-.31-3.09-.92-4.15-.61-1.05-1.42-1.81-2.46-2.33-1.04-.52-2.26-.78-3.64-.78-1.24,0-2.37,.26-3.37,.75-1,.5-1.77,1.16-2.36,1.99-.58,.82-.86,1.74-.86,2.82v13.28c0,.82-.27,1.51-.79,2.05-.53,.54-1.24,.83-2.08,.83s-1.52-.29-2.06-.82c-.53-.53-.82-1.24-.82-2.05v-21c0-.84,.29-1.56,.83-2.08,.54-.52,1.25-.79,2.05-.79s1.55,.28,2.07,.8c.15,.15,.28,.32,.39,.49l.53,.88,.87-.55c.22-.14,.46-.28,.72-.43,1.74-.95,3.7-1.43,5.83-1.43s4.27,.49,6.04,1.45c.89,.49,1.7,1.09,2.4,1.79,.7,.71,1.32,1.54,1.84,2.47,1.02,1.85,1.54,4.15,1.54,6.83Z"/>
      <path class="cls-1" d="M147.32,50.61c.5-.48,.76-1.09,.76-1.82,0-2.53-.49-4.82-1.44-6.78-.96-1.97-2.37-3.54-4.21-4.67-1.83-1.12-4.04-1.69-6.55-1.69s-4.85,.59-6.83,1.74c-1.98,1.15-3.55,2.76-4.67,4.79-1.12,2.02-1.68,4.39-1.68,7.03s.6,4.97,1.78,7c1.18,2.03,2.84,3.64,4.94,4.79,2.08,1.15,4.49,1.73,7.17,1.73,1.49,0,3.07-.28,4.7-.82,1.63-.55,3-1.27,4.1-2.13,.47-.36,1-.97,.95-1.88-.04-.69-.39-1.33-1.03-1.9-.45-.38-1.04-.59-1.68-.59h-.07c-.65,.02-1.24,.23-1.8,.64-.57,.43-1.36,.83-2.34,1.17-.96,.35-1.91,.52-2.83,.52-1.7,0-3.22-.38-4.53-1.12-1.31-.74-2.32-1.73-3.07-3.03-.18-.31-.31-.59-.43-.86l-.61-1.4h17.5c.75,0,1.38-.25,1.88-.73Zm-19.25-3.99l.54-1.37c.07-.18,.15-.34,.21-.48,.63-1.3,1.52-2.29,2.72-3.03,1.19-.74,2.65-1.11,4.34-1.11,1.49,0,2.72,.33,3.75,1.01,1.03,.68,1.81,1.58,2.37,2.74,.14,.3,.26,.6,.37,.91l.45,1.32h-14.75Z"/>
      <path class="cls-1" d="M160.13,6.04c-7.15,0-12.97,6.96-12.97,15.52s5.82,15.52,12.97,15.52,12.97-6.96,12.97-15.52-5.82-15.52-12.97-15.52Zm5.76,17c0,.49-.4,.89-.9,.89h-2.24v2.49c0,.5-.4,.9-.89,.9h-3.46c-.5,0-.9-.4-.9-.9v-2.49h-2.23c-.5,0-.9-.4-.9-.89v-2.95c0-.49,.4-.89,.9-.89h2.23v-2.49c0-.5,.4-.9,.9-.9h3.46c.5,0,.89,.4,.89,.9v2.49h2.24c.5,0,.9,.4,.9,.89v2.95Z"/>
      <g>
        <path class="cls-1" d="M184.75,13.88c0,2.52-.55,5.12-1.6,7.54-2.07,4.78-5.99,8.46-10.37,9.9,1.6-2.89,2.46-6.28,2.46-9.76,0-4.65-1.52-9.06-4.27-12.44-2.19-2.68-4.99-4.49-8.05-5.23C165.75,1.4,169.18,0,172.58,0c1.61,0,3.15,.31,4.59,.94,4.68,2.02,7.59,6.99,7.59,12.94Z"/>
        <path class="cls-1" d="M157.33,3.89c-3.06,.74-5.87,2.55-8.06,5.23-2.75,3.37-4.27,7.79-4.27,12.43,0,3.49,.87,6.87,2.46,9.76-4.38-1.44-8.3-5.12-10.37-9.91-3.6-8.3-.91-17.48,5.99-20.48,1.43-.62,2.97-.94,4.59-.94,3.4,0,6.83,1.4,9.65,3.89Z"/>
      </g>
      <path class="cls-1" d="M93.9,38.71v20.96c0,.81-.28,1.51-.79,2.05-.44,.45-.99,.72-1.63,.79l-11.33,.04c-1.48,0-2.8-.41-3.95-1.22-1.13-.8-2.02-1.9-2.65-3.27-.62-1.35-.94-2.93-.94-4.69V27.64c0-.8,.28-1.5,.8-2.02,.52-.53,1.23-.8,2.03-.8s1.5,.28,2.02,.8c.52,.52,.8,1.22,.8,2.02v26c0,.87,0,1.69,.4,2.4,.32,.54,.85,.86,1.44,.86,.03,0,.05,0,.05,0l6-.03c1.1,0,2-.91,2-2.01v-16.15c0-.84,.29-1.56,.83-2.08,.53-.52,1.24-.79,2.04-.79s1.55,.28,2.07,.8c.52,.52,.8,1.24,.8,2.07Z"/>
    </g>
  </g>
</svg>