<?xml version="1.0" encoding="UTF-8"?>
<svg id="Layer_2" data-name="Layer 2" xmlns="http://www.w3.org/2000/svg" viewBox="0 0 119.02 40.41">
  <defs>
    <style>
      .cls-1 {
        fill: #fff;
      }
    </style>
  </defs>
  <g id="Layer_1-2" data-name="Layer 1">
    <path class="cls-1" d="M13.07,38.41c0,.53-.18,.98-.55,1.34-.36,.36-.81,.54-1.33,.54H1.85c-.52,0-.97-.19-1.32-.55-.35-.35-.53-.82-.53-1.33V17.87c0-.53,.18-.97,.54-1.34,.36-.36,.8-.54,1.31-.54s.98,.19,1.34,.54c.35,.36,.55,.82,.55,1.34v18.66h7.46c.52,0,.98,.19,1.34,.55,.35,.35,.54,.82,.54,1.34Z"/>
    <path class="cls-1" d="M17.7,24.94v13.5c0,.52-.18,.97-.51,1.32-.34,.35-.79,.53-1.34,.53-.52,0-.98-.18-1.32-.53-.35-.35-.53-.79-.53-1.32v-13.5c0-.54,.19-1,.54-1.34,.35-.33,.8-.51,1.32-.51s1,.18,1.34,.52c.34,.34,.52,.8,.52,1.34Z"/>
    <path class="cls-1" d="M18.15,18.69c0,.63-.23,1.17-.68,1.62-.45,.45-1.01,.68-1.63,.68s-1.18-.24-1.63-.68c-.45-.45-.68-1-.68-1.62s.24-1.18,.68-1.63,1.01-.68,1.63-.68,1.18,.24,1.63,.68,.68,1.01,.68,1.63Z"/>
    <path class="cls-1" d="M25.25,23.04l-.02,.66h2.81c.49,0,.92,.15,1.24,.44,.33,.3,.49,.7,.49,1.19,0,.45-.16,.83-.49,1.13-.32,.29-.75,.45-1.24,.45h-2.79v11.53c0,.55-.17,1-.51,1.34-.35,.35-.8,.51-1.4,.51-.46,0-.87-.17-1.24-.51s-.55-.79-.55-1.34v-11.53h-1c-.49,0-.92-.15-1.24-.44-.33-.3-.49-.69-.49-1.14,0-.49,.17-.89,.49-1.19,.31-.29,.74-.44,1.24-.44h.99l.02-.62c.05-1.33,.35-2.52,.89-3.53,.6-1.12,1.45-2,2.53-2.62,1.07-.62,2.33-.94,3.73-.94,.51,0,.96,.16,1.31,.47,.36,.32,.54,.74,.54,1.23s-.18,.87-.54,1.21c-.34,.32-.8,.49-1.31,.49-.7,0-1.29,.15-1.82,.47-.52,.32-.92,.75-1.21,1.3-.27,.52-.42,1.15-.44,1.87Z"/>
    <path class="cls-1" d="M44.85,32.61c.32-.31,.49-.7,.49-1.17,0-1.63-.31-3.1-.93-4.37-.32-.64-.7-1.22-1.15-1.71-.45-.5-.98-.94-1.56-1.3-1.18-.72-2.6-1.09-4.23-1.09s-3.12,.38-4.4,1.12c-1.28,.74-2.29,1.78-3.01,3.08-.72,1.31-1.09,2.83-1.09,4.53s.39,3.2,1.15,4.51c.76,1.31,1.83,2.35,3.18,3.09,1.34,.74,2.9,1.11,4.62,1.11,.96,0,1.98-.18,3.03-.53,1.05-.35,1.93-.81,2.64-1.37,.3-.23,.65-.62,.61-1.21-.03-.45-.25-.86-.66-1.22-.3-.25-.66-.38-1.08-.38h-.04c-.42,.01-.8,.15-1.16,.41-.37,.28-.88,.54-1.51,.75-.62,.22-1.23,.33-1.83,.33-1.1,0-2.08-.24-2.92-.72-.85-.48-1.49-1.12-1.98-1.95-.11-.19-.21-.38-.28-.56l-.37-.89h11.25c.48,0,.89-.16,1.21-.47Zm-12.44-2.57l.38-.9c.04-.1,.08-.19,.13-.29,.4-.84,.98-1.47,1.75-1.95,.77-.47,1.71-.72,2.8-.72,.96,0,1.75,.21,2.42,.65,.66,.44,1.16,1.02,1.53,1.77,.09,.19,.17,.39,.24,.58l.29,.85h-9.54Z"/>
    <path class="cls-1" d="M60.95,18.69c0,.63-.23,1.17-.68,1.62-.45,.45-1.01,.68-1.63,.68s-1.18-.24-1.63-.68c-.45-.45-.68-1-.68-1.62s.24-1.18,.68-1.63,1.01-.68,1.63-.68,1.18,.24,1.63,.68,.68,1.01,.68,1.63Z"/>
    <path class="cls-1" d="M77.95,31.01v7.46c0,.53-.18,.97-.53,1.32-.35,.35-.79,.53-1.32,.53s-.98-.18-1.32-.53c-.35-.35-.53-.8-.53-1.32v-7.46c0-1.09-.2-1.99-.59-2.67-.39-.68-.91-1.17-1.59-1.5-.67-.33-1.46-.5-2.34-.5-.8,0-1.53,.16-2.17,.48-.65,.32-1.14,.75-1.52,1.28-.37,.53-.55,1.12-.55,1.82v8.55c0,.53-.17,.97-.51,1.32-.34,.35-.8,.53-1.34,.53s-.98-.18-1.33-.53c-.34-.34-.53-.8-.53-1.32v-13.53c0-.54,.18-1.01,.53-1.34,.35-.33,.8-.51,1.32-.51s1,.18,1.33,.52c.1,.1,.18,.2,.25,.31l.34,.57,.56-.35c.14-.09,.29-.18,.46-.27,1.12-.61,2.38-.92,3.76-.92s2.75,.31,3.89,.93c.57,.31,1.1,.7,1.55,1.15,.45,.45,.85,.99,1.18,1.59,.66,1.19,.99,2.67,.99,4.4Z"/>
    <path class="cls-1" d="M94.91,32.61c.32-.31,.49-.7,.49-1.17,0-1.63-.31-3.1-.93-4.37-.62-1.27-1.53-2.28-2.71-3.01-1.18-.72-2.6-1.09-4.22-1.09s-3.12,.38-4.4,1.12c-1.27,.74-2.29,1.78-3.01,3.09-.72,1.3-1.08,2.83-1.08,4.53s.39,3.2,1.15,4.51c.76,1.31,1.83,2.35,3.18,3.09,1.34,.74,2.89,1.11,4.62,1.11,.96,0,1.98-.18,3.03-.53,1.05-.35,1.94-.82,2.64-1.37,.3-.23,.65-.62,.61-1.21-.03-.44-.25-.85-.66-1.22-.29-.25-.67-.38-1.08-.38h-.04c-.42,.01-.8,.15-1.16,.41-.37,.28-.88,.53-1.51,.75-.62,.22-1.23,.33-1.83,.33-1.1,0-2.08-.24-2.92-.72-.85-.48-1.49-1.12-1.98-1.95-.11-.2-.2-.38-.28-.55l-.39-.9h11.27c.48,0,.89-.16,1.21-.47Zm-12.4-2.57l.35-.88c.05-.11,.09-.22,.14-.31,.41-.84,.98-1.48,1.75-1.95,.76-.47,1.71-.72,2.8-.72,.96,0,1.75,.21,2.42,.65,.66,.44,1.16,1.02,1.53,1.77,.09,.19,.17,.39,.24,.58l.29,.85h-9.5Z"/>
    <g>
      <path class="cls-1" d="M103.16,3.89c-4.61,0-8.36,4.48-8.36,10s3.75,10,8.36,10,8.36-4.48,8.36-10-3.75-10-8.36-10Zm3.71,10.95c0,.32-.26,.58-.58,.58h-1.44v1.6c0,.32-.26,.58-.58,.58h-2.23c-.32,0-.58-.26-.58-.58v-1.6h-1.44c-.32,0-.58-.26-.58-.58v-1.9c0-.32,.26-.58,.58-.58h1.44v-1.6c0-.32,.26-.58,.58-.58h2.23c.32,0,.58,.26,.58,.58v1.6h1.44c.32,0,.58,.26,.58,.58v1.9Z"/>
      <g>
        <path class="cls-1" d="M119.02,8.94c0,1.62-.35,3.3-1.03,4.86-1.33,3.08-3.86,5.45-6.68,6.38,1.03-1.86,1.59-4.05,1.59-6.29,0-2.99-.98-5.84-2.75-8.01-1.41-1.73-3.22-2.89-5.19-3.37C106.78,.9,108.99,0,111.18,0c1.04,0,2.03,.2,2.96,.6,3.01,1.3,4.89,4.5,4.89,8.34Z"/>
        <path class="cls-1" d="M101.36,2.51c-1.97,.48-3.78,1.65-5.19,3.37-1.77,2.17-2.75,5.02-2.75,8.01,0,2.25,.56,4.42,1.59,6.29-2.82-.93-5.35-3.3-6.68-6.38-2.32-5.35-.59-11.26,3.86-13.19,.92-.4,1.92-.6,2.95-.6,2.19,0,4.4,.9,6.22,2.51Z"/>
      </g>
    </g>
    <path class="cls-1" d="M60.49,24.94v13.5c0,.52-.18,.97-.51,1.32-.28,.29-.64,.46-1.05,.51l-7.3,.02c-.95,0-1.81-.26-2.54-.78-.73-.51-1.3-1.22-1.71-2.11-.4-.87-.6-1.89-.6-3.02V17.81c0-.52,.18-.97,.51-1.3,.34-.34,.79-.52,1.31-.52s.96,.18,1.3,.52c.34,.34,.52,.79,.52,1.3v16.75c0,.56,0,1.09,.25,1.55,.21,.35,.55,.55,.93,.55,.02,0,.03,0,.03,0l3.87-.02c.71,0,1.29-.58,1.29-1.29v-10.4c0-.54,.18-1,.53-1.34,.34-.33,.8-.51,1.32-.51s1,.18,1.34,.52c.34,.34,.52,.8,.52,1.33Z"/>
  </g>
</svg>