<?xml version="1.0" encoding="UTF-8"?>
<svg id="Layer_2" data-name="Layer 2" xmlns="http://www.w3.org/2000/svg" viewBox="0 0 209.7 71.2">
  <defs>
    <style>
      .cls-1 {
        fill: #0164b0;
      }

      .cls-2 {
        fill: #75c44c;
      }
    </style>
  </defs>
  <g id="Layer_1-2" data-name="Layer 1">
    <path class="cls-1" d="M23.02,67.68c0,.93-.32,1.72-.96,2.36-.64,.63-1.43,.95-2.35,.95H3.26c-.92,0-1.72-.34-2.33-.97-.61-.63-.93-1.44-.93-2.35V31.48c0-.93,.32-1.72,.95-2.35,.64-.64,1.41-.95,2.3-.95s1.73,.33,2.36,.95c.63,.63,.96,1.44,.96,2.35v32.88h13.14c.92,0,1.73,.34,2.35,.96,.63,.63,.95,1.44,.95,2.35Z"/>
    <path class="cls-1" d="M31.18,43.94v23.79c0,.91-.31,1.71-.9,2.32-.6,.63-1.39,.94-2.36,.94-.92,0-1.72-.32-2.33-.94-.62-.61-.93-1.39-.93-2.32v-23.79c0-.95,.33-1.77,.94-2.36,.61-.59,1.41-.9,2.32-.9s1.76,.31,2.35,.91c.59,.59,.91,1.4,.91,2.35Z"/>
    <path class="cls-1" d="M31.98,32.93c0,1.1-.4,2.06-1.2,2.86-.79,.78-1.78,1.2-2.86,1.2s-2.07-.41-2.86-1.2c-.8-.8-1.2-1.76-1.2-2.86s.41-2.08,1.2-2.86,1.77-1.2,2.86-1.2,2.08,.41,2.86,1.2,1.2,1.77,1.2,2.86Z"/>
    <path class="cls-1" d="M44.48,40.59l-.03,1.17h4.94c.87,0,1.63,.27,2.18,.78,.58,.53,.87,1.24,.87,2.1,0,.79-.29,1.47-.86,1.99-.56,.52-1.31,.78-2.18,.78h-4.92v20.32c0,.96-.3,1.76-.9,2.35-.61,.61-1.41,.9-2.46,.9-.81,0-1.54-.3-2.18-.9s-.97-1.39-.97-2.36v-20.32h-1.77c-.87,0-1.63-.27-2.18-.78-.58-.53-.87-1.21-.87-2,0-.86,.3-1.57,.87-2.1,.55-.51,1.3-.78,2.18-.78h1.74l.04-1.1c.09-2.35,.61-4.44,1.57-6.21,1.05-1.97,2.55-3.52,4.46-4.62,1.89-1.1,4.1-1.65,6.57-1.65,.9,0,1.7,.28,2.3,.82,.64,.57,.95,1.3,.95,2.17s-.32,1.54-.95,2.13c-.6,.57-1.4,.87-2.31,.87-1.23,0-2.28,.27-3.2,.83-.92,.56-1.61,1.31-2.13,2.3-.48,.92-.73,2.03-.77,3.3Z"/>
    <path class="cls-1" d="M79.02,57.45c.57-.55,.86-1.24,.86-2.06,0-2.88-.55-5.47-1.63-7.7-.56-1.13-1.23-2.14-2.02-3.01-.8-.89-1.72-1.65-2.75-2.29-2.08-1.27-4.59-1.92-7.45-1.92s-5.5,.67-7.75,1.97c-2.25,1.31-4.03,3.14-5.3,5.43-1.27,2.3-1.92,4.99-1.92,7.99s.68,5.64,2.02,7.94c1.35,2.3,3.23,4.13,5.6,5.44,2.36,1.3,5.1,1.96,8.14,1.96,1.69,0,3.48-.31,5.33-.93,1.84-.62,3.4-1.43,4.65-2.42,.53-.41,1.14-1.1,1.08-2.13-.05-.78-.44-1.51-1.17-2.15-.52-.44-1.17-.67-1.9-.67h-.07c-.73,.02-1.4,.26-2.05,.73-.65,.49-1.55,.94-2.65,1.33-1.09,.39-2.17,.59-3.22,.59-1.93,0-3.66-.43-5.14-1.27-1.49-.85-2.63-1.97-3.48-3.44-.2-.34-.36-.66-.5-.99l-.65-1.57h19.82c.85,0,1.57-.28,2.14-.82Zm-21.91-4.52l.68-1.59c.07-.17,.15-.34,.23-.51,.71-1.47,1.72-2.6,3.09-3.44,1.35-.84,3.01-1.26,4.93-1.26,1.69,0,3.09,.38,4.26,1.15,1.17,.77,2.05,1.79,2.69,3.11,.16,.34,.3,.69,.41,1.03l.51,1.5h-16.8Z"/>
    <path class="cls-1" d="M107.38,32.93c0,1.1-.4,2.06-1.2,2.86-.79,.78-1.78,1.2-2.86,1.2s-2.07-.41-2.86-1.2c-.8-.8-1.2-1.76-1.2-2.86s.41-2.08,1.2-2.86,1.77-1.2,2.86-1.2,2.08,.41,2.86,1.2,1.2,1.77,1.2,2.86Z"/>
    <path class="cls-1" d="M137.34,54.64v13.14c0,.93-.31,1.72-.93,2.33-.61,.62-1.4,.93-2.32,.93s-1.72-.32-2.33-.93c-.61-.61-.93-1.42-.93-2.33v-13.14c0-1.93-.35-3.51-1.05-4.71-.69-1.19-1.61-2.06-2.8-2.65-1.18-.59-2.57-.88-4.13-.88-1.41,0-2.69,.29-3.83,.85-1.14,.57-2.01,1.31-2.68,2.26-.66,.93-.98,1.98-.98,3.2v15.07c0,.93-.3,1.71-.89,2.32-.6,.61-1.41,.94-2.36,.94s-1.73-.32-2.34-.93c-.6-.6-.93-1.41-.93-2.33v-23.84c0-.95,.32-1.77,.94-2.36,.61-.59,1.42-.9,2.32-.9s1.76,.31,2.35,.91c.17,.17,.32,.36,.44,.55l.6,1,.98-.63c.25-.15,.52-.32,.82-.48,1.97-1.07,4.19-1.62,6.62-1.62s4.84,.55,6.85,1.64c1.01,.55,1.93,1.23,2.73,2.03,.8,.8,1.5,1.75,2.09,2.81,1.16,2.1,1.75,4.71,1.75,7.75Z"/>
    <path class="cls-1" d="M167.22,57.45c.57-.55,.86-1.24,.86-2.06,0-2.88-.55-5.47-1.63-7.7-1.09-2.23-2.69-4.02-4.77-5.3-2.07-1.27-4.58-1.92-7.44-1.92s-5.5,.67-7.75,1.97c-2.25,1.31-4.03,3.14-5.3,5.44-1.27,2.3-1.91,4.98-1.91,7.98s.68,5.64,2.02,7.94c1.34,2.3,3.23,4.13,5.6,5.44,2.36,1.3,5.1,1.96,8.14,1.96,1.69,0,3.49-.31,5.33-.93,1.85-.63,3.41-1.44,4.65-2.42,.53-.41,1.14-1.1,1.08-2.13-.05-.78-.44-1.51-1.17-2.15-.51-.43-1.18-.67-1.9-.67h-.07c-.73,.02-1.4,.26-2.05,.73-.65,.49-1.55,.94-2.65,1.33-1.09,.39-2.17,.59-3.22,.59-1.93,0-3.66-.43-5.14-1.27-1.49-.84-2.63-1.97-3.49-3.44-.2-.35-.35-.66-.49-.98l-.69-1.59h19.86c.85,0,1.56-.28,2.13-.82Zm-21.85-4.52l.61-1.55c.08-.2,.16-.38,.24-.54,.72-1.48,1.72-2.6,3.09-3.44,1.35-.84,3.01-1.26,4.93-1.26,1.69,0,3.09,.38,4.26,1.15,1.17,.77,2.05,1.79,2.69,3.11,.16,.34,.3,.68,.41,1.03l.51,1.5h-16.74Z"/>
    <path class="cls-1" d="M181.75,6.85c-8.12,0-14.72,7.9-14.72,17.62s6.61,17.61,14.72,17.61,14.73-7.9,14.73-17.61-6.61-17.62-14.73-17.62Zm6.54,19.29c0,.56-.46,1.01-1.02,1.01h-2.54v2.83c0,.56-.45,1.02-1.01,1.02h-3.93c-.56,0-1.02-.46-1.02-1.02v-2.83h-2.54c-.56,0-1.02-.46-1.02-1.01v-3.35c0-.56,.46-1.01,1.02-1.01h2.54v-2.83c0-.56,.46-1.02,1.02-1.02h3.93c.56,0,1.01,.46,1.01,1.02v2.83h2.54c.56,0,1.02,.46,1.02,1.01v3.35Z"/>
    <g>
      <path class="cls-2" d="M209.7,15.76c0,2.86-.63,5.81-1.81,8.55-2.35,5.42-6.8,9.6-11.77,11.24,1.82-3.29,2.8-7.13,2.8-11.08,0-5.27-1.72-10.29-4.85-14.12-2.48-3.04-5.67-5.09-9.14-5.93C188.13,1.59,192.02,0,195.88,0c1.82,0,3.58,.35,5.21,1.06,5.31,2.3,8.61,7.93,8.61,14.69Z"/>
      <path class="cls-2" d="M178.58,4.42c-3.47,.84-6.66,2.9-9.15,5.94-3.13,3.83-4.85,8.84-4.85,14.11,0,3.96,.98,7.79,2.8,11.08-4.97-1.63-9.42-5.81-11.77-11.24-4.08-9.42-1.03-19.84,6.8-23.24,1.63-.7,3.38-1.06,5.21-1.06,3.85,0,7.75,1.59,10.96,4.42Z"/>
    </g>
    <path class="cls-1" d="M106.58,43.94v23.79c0,.92-.31,1.72-.9,2.32-.49,.51-1.12,.81-1.85,.9l-12.86,.04c-1.68,0-3.18-.46-4.48-1.38-1.28-.9-2.3-2.15-3.01-3.72-.7-1.53-1.06-3.32-1.06-5.33V31.37c0-.91,.31-1.71,.9-2.3,.59-.6,1.39-.91,2.31-.91s1.7,.31,2.29,.91c.59,.59,.91,1.39,.91,2.3v29.51c0,.98-.01,1.92,.45,2.72,.36,.61,.96,.97,1.64,.97,.03,0,.06,0,.06,0l6.81-.03c1.25,0,2.27-1.03,2.27-2.28v-18.33c0-.95,.32-1.77,.94-2.36,.6-.59,1.41-.9,2.32-.9s1.76,.31,2.35,.91c.59,.59,.91,1.4,.91,2.35Z"/>
  </g>
</svg>